<?xml version="1.0" encoding="utf-8"?>
<!-- Generator: Adobe Illustrator 21.1.0, SVG Export Plug-In . SVG Version: 6.00 Build 0)  -->
<svg version="1.1" id="Layer_1" xmlns="http://www.w3.org/2000/svg" xmlns:xlink="http://www.w3.org/1999/xlink" x="0px" y="0px"
	 viewBox="0 0 800 800" style="enable-background:new 0 0 800 800;" xml:space="preserve">
<style type="text/css">
	.st0{fill:#00132C;}
	.st1{fill:#FFFFFF;}
	.st2{fill:url(#SVGID_1_);}
	.st3{fill:url(#SVGID_2_);}
	.st4{fill:url(#SVGID_3_);}
</style>
<rect x="0.9" y="-1" class="st0" width="800" height="801"/>
<g>
	<path class="st1" d="M126.7,581.8c0-3.6,0.6-7.1,1.9-10.5c1.3-3.5,3.2-6.6,5.6-9.3c2.5-2.7,5.5-4.9,9-6.6c3.6-1.7,7.6-2.5,12.1-2.5
		c5.4,0,10,1.2,13.9,3.5c3.9,2.4,6.8,5.4,8.7,9.2l-8.7,6c-0.8-1.6-1.7-3-2.8-4.1c-1.1-1.1-2.3-2-3.5-2.7c-1.3-0.7-2.6-1.1-3.9-1.4
		c-1.4-0.3-2.7-0.5-4-0.5c-2.8,0-5.3,0.6-7.4,1.7c-2.1,1.1-3.9,2.6-5.2,4.5c-1.4,1.8-2.4,3.9-3.2,6.2c-0.7,2.3-1.1,4.6-1.1,6.9
		c0,2.6,0.4,5,1.2,7.4s2,4.5,3.5,6.3c1.5,1.8,3.3,3.3,5.4,4.3c2.1,1.1,4.4,1.6,6.9,1.6c1.3,0,2.7-0.2,4.1-0.5
		c1.4-0.3,2.8-0.8,4.1-1.6c1.3-0.7,2.5-1.6,3.6-2.7c1.1-1.1,2-2.5,2.6-4.1l9.3,5.3c-0.9,2.2-2.3,4.1-4,5.8c-1.7,1.7-3.7,3.1-5.8,4.2
		c-2.2,1.1-4.5,2-6.9,2.6c-2.5,0.6-4.9,0.9-7.2,0.9c-4.2,0-8-0.9-11.4-2.6s-6.4-4-8.9-6.8c-2.5-2.8-4.4-6-5.8-9.6
		C127.4,589.2,126.7,585.5,126.7,581.8z"/>
	<path class="st1" d="M180.6,611.3l20-45.8h8.1l19.9,45.8h-10.5l-4.6-10.7h-17.8l-4.6,10.7H180.6z M204.8,577.5L198,592h13.2
		L204.8,577.5z"/>
	<path class="st1" d="M268.1,574.2H252v37.1h-9.9v-37.1h-16.2v-8.7h42.3V574.2z"/>
	<path class="st1" d="M269.9,588c0-2.8,0.5-5.5,1.6-8.3c1.1-2.7,2.7-5.2,4.8-7.3c2.1-2.1,4.6-3.9,7.6-5.2c3-1.3,6.4-2,10.3-2
		c4.5,0,8.5,0.9,11.8,2.7c3.3,1.8,5.8,4.2,7.3,7.3l-7.6,5.3c-0.6-1.3-1.4-2.3-2.3-3.1c-0.9-0.8-1.9-1.5-3-2s-2.2-0.8-3.3-1.1
		c-1.1-0.2-2.2-0.3-3.2-0.3c-2.4,0-4.4,0.4-6.1,1.3c-1.8,0.8-3.2,1.9-4.4,3.3c-1.2,1.3-2.1,2.9-2.7,4.6c-0.6,1.7-0.9,3.4-0.9,5.1
		c0,1.9,0.3,3.7,1,5.5c0.7,1.8,1.7,3.3,2.9,4.6c1.3,1.3,2.8,2.4,4.5,3.2c1.7,0.8,3.7,1.2,5.8,1.2c1.1,0,2.2-0.1,3.4-0.4
		s2.3-0.6,3.3-1.1c1.1-0.5,2-1.2,3-2c0.9-0.8,1.6-1.9,2.2-3.1l8.2,4.8c-0.8,1.7-1.9,3.2-3.4,4.6c-1.5,1.3-3.1,2.5-5,3.4
		c-1.8,0.9-3.8,1.6-5.9,2c-2.1,0.5-4.1,0.7-6.1,0.7c-3.6,0-6.8-0.7-9.7-2c-2.9-1.4-5.4-3.2-7.5-5.4c-2.1-2.2-3.7-4.8-4.9-7.6
		C270.5,593.9,269.9,591,269.9,588z"/>
	<path class="st1" d="M364.2,565.5v45.8h-9.9v-19h-23v19h-9.9v-45.8h9.9v18h23v-18H364.2z"/>
	<path class="st1" d="M436.8,563h-18.6v48.3H407V563h-18.6v-9.9h48.5V563z"/>
	<path class="st1" d="M479,565.5v45.8h-9.9v-19h-23v19h-9.9v-45.8h9.9v18h23v-18H479z"/>
	<path class="st1" d="M525.5,602.6v8.7h-35.3v-45.8h34.7v8.7h-24.8v9.8h21.4v8.1h-21.4v10.6H525.5z"/>
	<path class="st1" d="M575.6,611.3v-28.6l-13.1,21H557l-13-21v28.6h-9.9v-45.8h10.7l15,24.8l15-24.8h10.6v45.8H575.6z"/>
	<path class="st1" d="M632,602.6v8.7h-35.3v-45.8h34.7v8.7h-24.8v9.8H628v8.1h-21.4v10.6H632z"/>
	<path class="st1" d="M669.2,578.3c-0.4-0.4-1.1-0.8-2-1.4s-1.9-1-3.1-1.4c-1.2-0.4-2.5-0.8-3.9-1.1c-1.4-0.3-2.8-0.5-4.2-0.5
		c-5.1,0-7.7,1.4-7.7,4.3c0,0.8,0.2,1.5,0.7,2.1c0.5,0.6,1.2,1.1,2.1,1.5s2.1,0.8,3.5,1.2s3,0.8,4.9,1.2c2.4,0.6,4.6,1.3,6.6,2
		c2,0.7,3.6,1.6,5,2.6c1.4,1,2.4,2.3,3.2,3.7c0.7,1.4,1.1,3.2,1.1,5.4c0,2.6-0.5,4.7-1.5,6.5c-1,1.8-2.4,3.2-4.1,4.3
		c-1.7,1.1-3.6,1.9-5.9,2.4c-2.2,0.5-4.5,0.7-6.9,0.7c-3.7,0-7.4-0.5-11.1-1.6c-3.7-1-6.9-2.5-9.8-4.3l4.4-8.6
		c0.5,0.5,1.4,1.1,2.4,1.8c1.1,0.7,2.3,1.3,3.8,1.8c1.5,0.5,3.1,1,4.8,1.4c1.7,0.4,3.6,0.5,5.5,0.5c2.5,0,4.3-0.4,5.6-1.1
		c1.3-0.7,1.9-1.7,1.9-3c0-0.9-0.3-1.6-0.9-2.2c-0.6-0.6-1.4-1.1-2.5-1.6c-1.1-0.5-2.4-0.9-4-1.4c-1.6-0.4-3.3-0.9-5.2-1.4
		c-4.7-1.2-8.2-2.7-10.5-4.6c-2.3-1.9-3.4-4.6-3.4-8.2c0-2.4,0.5-4.4,1.4-6.2c1-1.8,2.3-3.3,3.9-4.5c1.6-1.2,3.6-2.1,5.7-2.7
		c2.2-0.6,4.5-0.9,7-0.9c3.4,0,6.7,0.5,9.6,1.6c3,1,5.5,2.2,7.7,3.5L669.2,578.3z"/>
	<path class="st1" d="M149.8,709.7v-58.2h21.2c4.8,0,8.9,0.8,12.5,2.3c3.6,1.5,6.6,3.6,9,6.2c2.4,2.6,4.2,5.7,5.4,9.2
		c1.2,3.5,1.8,7.3,1.8,11.3c0,4.4-0.7,8.4-2,12c-1.3,3.6-3.3,6.6-5.8,9.2c-2.5,2.5-5.5,4.5-9.1,5.9c-3.5,1.4-7.5,2.1-11.8,2.1H149.8
		z M188.2,680.5c0-2.8-0.4-5.4-1.1-7.7c-0.8-2.3-1.9-4.4-3.4-6.1s-3.3-3-5.5-3.9c-2.2-0.9-4.6-1.4-7.3-1.4h-9.8v38.4h9.8
		c2.8,0,5.3-0.5,7.4-1.5c2.2-1,4-2.3,5.4-4.1c1.4-1.7,2.6-3.8,3.3-6.1C187.9,685.8,188.2,683.2,188.2,680.5z"/>
	<path class="st1" d="M243.3,701v8.7H208v-45.8h34.7v8.7h-24.8v9.8h21.4v8.1h-21.4V701H243.3z"/>
	<path class="st1" d="M293.4,709.7v-28.6l-13.1,21h-5.4l-13-21v28.6h-9.9v-45.8h10.7l15,24.8l15-24.8h10.6v45.8H293.4z"/>
	<path class="st1" d="M335.6,710c-3.6,0-6.9-0.7-9.8-2c-3-1.3-5.5-3.1-7.6-5.2c-2.1-2.2-3.8-4.7-4.9-7.5s-1.7-5.7-1.7-8.6
		c0-3,0.6-5.9,1.8-8.7c1.2-2.8,2.9-5.2,5-7.4c2.2-2.1,4.7-3.8,7.7-5.1c3-1.3,6.2-1.9,9.7-1.9c3.6,0,6.9,0.7,9.8,2
		c3,1.3,5.5,3.1,7.6,5.3c2.1,2.2,3.7,4.7,4.9,7.5c1.1,2.8,1.7,5.7,1.7,8.6c0,3-0.6,5.9-1.8,8.7c-1.2,2.8-2.9,5.2-5,7.4
		c-2.2,2.1-4.7,3.8-7.7,5.1C342.3,709.4,339.1,710,335.6,710z M321.5,686.8c0,1.9,0.3,3.6,1,5.4c0.7,1.7,1.6,3.3,2.8,4.6
		c1.2,1.3,2.7,2.4,4.4,3.2c1.7,0.8,3.7,1.2,6,1.2c2.3,0,4.3-0.4,6-1.3c1.7-0.8,3.2-2,4.4-3.3c1.2-1.4,2.1-2.9,2.7-4.6
		c0.6-1.7,0.9-3.5,0.9-5.3c0-1.9-0.3-3.6-1-5.4c-0.7-1.7-1.6-3.2-2.8-4.6c-1.2-1.3-2.7-2.4-4.4-3.2c-1.7-0.8-3.7-1.2-5.9-1.2
		c-2.2,0-4.2,0.4-6,1.3c-1.8,0.8-3.2,1.9-4.4,3.3c-1.2,1.3-2.1,2.9-2.7,4.6C321.8,683.3,321.5,685.1,321.5,686.8z"/>
	<path class="st1" d="M388.1,709.7v-58.2h11.3v58.2H388.1z"/>
	<path class="st1" d="M452.6,709.7v-28.6l-13.1,21h-5.4l-13-21v28.6h-9.9v-45.8h10.7l15,24.8l15-24.8h10.6v45.8H452.6z"/>
	<path class="st1" d="M473.7,709.7v-45.8h21.6c2.4,0,4.5,0.5,6.5,1.4c2,0.9,3.7,2.1,5.1,3.5c1.4,1.4,2.5,3.1,3.4,5
		c0.8,1.9,1.2,3.7,1.2,5.6c0,2-0.4,3.9-1.1,5.7c-0.8,1.9-1.8,3.5-3.2,4.9c-1.4,1.4-3.1,2.6-5,3.4c-1.9,0.9-4.1,1.3-6.4,1.3h-12.1v15
		H473.7z M483.6,686H495c1.9,0,3.4-0.6,4.6-1.7c1.2-1.1,1.8-2.8,1.8-5c0-2.2-0.7-3.9-2.1-5c-1.4-1.1-3-1.7-4.7-1.7h-11V686z"/>
	<path class="st1" d="M540.1,710c-3.6,0-6.9-0.7-9.8-2c-3-1.3-5.5-3.1-7.6-5.2c-2.1-2.2-3.8-4.7-4.9-7.5c-1.1-2.8-1.7-5.7-1.7-8.6
		c0-3,0.6-5.9,1.8-8.7c1.2-2.8,2.9-5.2,5-7.4c2.2-2.1,4.7-3.8,7.7-5.1c3-1.3,6.2-1.9,9.7-1.9c3.6,0,6.9,0.7,9.8,2
		c3,1.3,5.5,3.1,7.6,5.3c2.1,2.2,3.7,4.7,4.9,7.5c1.1,2.8,1.7,5.7,1.7,8.6c0,3-0.6,5.9-1.8,8.7c-1.2,2.8-2.9,5.2-5,7.4
		c-2.2,2.1-4.7,3.8-7.7,5.1C546.8,709.4,543.6,710,540.1,710z M526,686.8c0,1.9,0.3,3.6,1,5.4c0.7,1.7,1.6,3.3,2.8,4.6
		c1.2,1.3,2.7,2.4,4.4,3.2c1.7,0.8,3.7,1.2,6,1.2c2.3,0,4.3-0.4,6-1.3c1.7-0.8,3.2-2,4.4-3.3c1.2-1.4,2.1-2.9,2.7-4.6
		s0.9-3.5,0.9-5.3c0-1.9-0.3-3.6-1-5.4c-0.7-1.7-1.6-3.2-2.8-4.6c-1.2-1.3-2.7-2.4-4.4-3.2c-1.7-0.8-3.7-1.2-5.9-1.2
		c-2.2,0-4.2,0.4-6,1.3c-1.8,0.8-3.2,1.9-4.4,3.3c-1.2,1.3-2.1,2.9-2.7,4.6C526.3,683.3,526,685.1,526,686.8z"/>
	<path class="st1" d="M572.5,709.7v-45.8H595c2.3,0,4.5,0.5,6.5,1.4c2,0.9,3.7,2.1,5.1,3.5c1.4,1.4,2.6,3.1,3.4,5
		c0.8,1.9,1.2,3.7,1.2,5.6c0,2.9-0.8,5.5-2.5,8c-1.6,2.4-3.9,4.2-6.6,5.3l12,17.1h-11.3l-10.7-15h-9.7v15H572.5z M582.4,686h12.4
		c1.8,0,3.3-0.6,4.6-1.9c1.2-1.3,1.8-2.9,1.8-4.8c0-1-0.2-1.9-0.6-2.7c-0.4-0.8-0.9-1.5-1.5-2.1c-0.6-0.6-1.4-1.1-2.2-1.4
		c-0.8-0.3-1.7-0.5-2.5-0.5h-12V686z"/>
	<path class="st1" d="M658.7,672.6h-16.2v37.1h-9.9v-37.1h-16.2v-8.7h42.3V672.6z"/>
</g>
<g>
	<linearGradient id="SVGID_1_" gradientUnits="userSpaceOnUse" x1="296.7507" y1="465.4754" x2="296.7507" y2="219.1574">
		<stop  offset="0" style="stop-color:#0494DA"/>
		<stop  offset="1" style="stop-color:#00EDA2"/>
	</linearGradient>
	<path class="st2" d="M305.9,408.6l113.7-94.7l-113.7-94.7V276c-113.7,0-176.6,101-94.7,189.5c-33.2-60.1-37.9-113.7,94.7-113.7
		V408.6z"/>
	<linearGradient id="SVGID_2_" gradientUnits="userSpaceOnUse" x1="312.9187" y1="344.9802" x2="312.9187" y2="344.9802">
		<stop  offset="0" style="stop-color:#0494DA"/>
		<stop  offset="1" style="stop-color:#00EDA2"/>
	</linearGradient>
	<path class="st3" d="M312.9,345"/>
	<linearGradient id="SVGID_3_" gradientUnits="userSpaceOnUse" x1="419.5392" y1="465.4291" x2="419.5392" y2="86.5246">
		<stop  offset="0" style="stop-color:#0494DA"/>
		<stop  offset="1" style="stop-color:#00EDA2"/>
	</linearGradient>
	<path class="st4" d="M230.1,86.5c-18.9,0-18.9,18.9-18.9,18.9v151.6c0,0,18.9,0,18.9-18.9v-75.8H609v284.2H249
		c-18.9,0-18.9,18.9-18.9,18.9H609c0,0,18.9,0,18.9-18.9v-341c0,0,0-18.9-18.9-18.9C609,86.5,230.1,86.5,230.1,86.5z M609,143.4
		H230.1v-18.9H609L609,143.4L609,143.4z"/>
</g>
</svg>
